<?xml version="1.0" encoding="utf-8"?>
<!-- Generator: Adobe Illustrator 15.0.0, SVG Export Plug-In . SVG Version: 6.00 Build 0)  -->
<!DOCTYPE svg PUBLIC "-//W3C//DTD SVG 1.1//EN" "http://www.w3.org/Graphics/SVG/1.1/DTD/svg11.dtd">
<svg version="1.1" id="图层_1" xmlns="http://www.w3.org/2000/svg" xmlns:xlink="http://www.w3.org/1999/xlink" x="0px" y="0px"
	 width="2380px" height="800px" viewBox="0 0 2380 800" enable-background="new 0 0 2380 800" xml:space="preserve">
<g id="text4">
	<path id="path48" fill="#0E062B" d="M485.94,515.075c3.493,1.747,6.112,1.05,7.855-2.096c8.029-26.183,28.806-41.894,62.324-47.133
		c6.285-4.541,7.332-8.732,3.14-12.568c-98.108-16.759-169.683-69.124-214.72-157.11h196.389c3.843-1.397,5.239-3.494,4.191-6.288
		c-17.108-14.314-36.483-29.675-58.132-46.084c-3.141-2.096-5.585-2.096-7.332,0c-13.266,15.709-24.964,29.675-35.086,41.9H328.304
		v-100.03h173.871c4.89-1.047,6.982-3.144,6.288-6.287c-18.505-14.315-39.107-29.327-61.801-45.038
		c-2.791-1.397-5.061-1.397-6.807,0c-11.52,14.314-22.868,27.928-34.042,40.847h-77.509v-58.131
		c4.192-2.444,8.904-5.588,14.14-9.431c2.445-4.532,2.445-7.851,0-9.947c-22.693-5.581-44.862-10.122-66.508-13.616
		c-3.842,0-5.589,1.396-5.24,4.192c1.049,17.799,1.748,32.82,2.097,45.038v41.895H138.723c-11.173,0.348-22.344-0.35-33.518-2.097
		l10.476,14.67c9.777-1.746,19.55-2.444,29.326-2.096h127.785v100.03H105.205c-12.917,0.35-25.837-0.348-38.753-2.095l12.043,14.13
		c10.825-1.389,21.823-1.913,32.993-1.563h108.411c-31.772,93.916-88.333,168.806-169.683,224.663
		c-2.095,2.794-0.524,5.415,4.711,7.859c101.253-44.338,173.875-106.833,217.865-187.484v162.35
		c0.349,25.135-0.35,49.921-2.097,74.363c2.097,6.63,11.874,8.376,29.332,5.234c17.803-3.137,27.929-10.465,30.375-21.992
		c-1.397-21.291-2.097-43.641-2.097-67.037V296.168h7.856C356.761,395.667,406.686,468.643,485.94,515.075L485.94,515.075z"/>
</g>
<g id="text6">
	<path id="path51" fill="#0E062B" d="M1030.598,536.025c4.89,1.398,8.548,0.699,10.995-2.096
		c11.178-28.277,32.294-45.911,63.368-52.895c3.493-3.138,3.493-6.107,0-8.901c-95.664-16.409-169.155-61.447-220.479-135.121
		h218.384c4.89-0.698,5.588-4.191,2.095-10.472c-6.63-6.279-15.014-13.439-25.134-21.474c-10.123-8.026-18.331-14.838-24.619-20.419
		c-5.23-3.493-9.772-3.493-13.614,0c-11.869,14.656-22.69,28.627-32.472,41.893h-83.791c8.728-10.82,19.902-23.569,33.519-38.225
		c13.615-14.671,26.536-30.208,38.755-46.617c5.237-0.35,12.042-1.746,20.426-4.192c4.532-2.794,5.581-6.104,3.144-9.948
		c-22.349-11.868-44.169-22.522-65.47-31.945c-6.282-2.787-9.948-1.397-10.994,4.192c-9.777,41.195-23.742,83.446-41.897,126.736
		h-28.803v-144.02h190.105c5.588-1.397,6.987-4.54,4.192-9.431c-14.664-11.861-33.343-25.834-56.041-41.894
		c-4.532-2.437-8.377-2.437-11.52,0c-9.431,14.314-19.204,27.938-29.327,40.846h-97.411v-57.081
		c4.188-3.145,9.253-6.987,15.188-11.52c3.14-3.843,3.14-7.502,0-10.995c-23.743-5.24-45.563-9.432-65.465-12.576
		c-6.284-1.047-8.903,1.747-7.856,8.384c2.096,16.41,3.144,32.82,3.144,49.23v34.558H671.333c-12.218,0.349-24.44-0.35-36.658-2.088
		l9.948,14.664c9.078-1.748,17.981-2.446,26.71-2.097h147.688v144.02H637.814c-13.265,0.351-27.58-0.349-42.941-2.095l10.996,14.663
		c11.522-1.745,23.217-2.445,35.089-2.096h134.592c-21.995,40.504-49.404,78.914-82.223,115.218
		c-32.82,35.964-65.289,65.464-97.407,88.511c-3.493,5.583-2.096,8.724,4.188,9.425c41.548-17.108,81.7-40.147,120.452-69.132
		c39.104-28.979,71.923-59.353,98.459-91.125v128.833c-0.349,21.999-1.048,42.768-2.096,62.321
		c1.747,9.772,11.346,13.267,28.803,10.473c17.806-2.447,27.934-10.822,30.373-25.138c-1.393-24.085-2.091-47.131-2.091-69.131
		V339.109c11.52,42.95,31.597,81.176,60.224,114.693C962.861,487.323,994.981,514.727,1030.598,536.025L1030.598,536.025z
		 M684.948,207.133c17.808,28.627,27.583,58.653,29.33,90.083c5.236,21.301,17.458,28.453,36.659,21.475
		c19.553-6.987,26.885-24.444,21.994-52.381c-12.217-26.184-39.627-48.349-82.219-66.504
		C684.773,198.758,682.856,201.203,684.948,207.133z"/>
</g>
<g id="text8">
	<path id="path54" fill="#0E062B" d="M1536.496,289.88h-134.065v-73.84h134.065V289.88z M1536.496,206.086h-134.065v-72.793h134.065
		V206.086z M1486.219,455.375c-31.071,13.965-59.002,26.882-83.788,38.749V299.828h45.039
		C1449.565,356.043,1462.482,407.893,1486.219,455.375L1486.219,455.375z M1503.501,408.242
		c-23.386-33.868-39.97-70.005-49.743-108.415h82.738v12.576c2.445,9.423,12.575,12.567,30.375,9.423
		c18.155-3.487,28.462-9.423,30.897-17.806c-2.087-35.266-3.135-70.705-3.135-106.312v-39.796l13.614-16.244
		c2.096-4.192,2.096-8.027,0-11.52c-12.566-10.471-27.929-20.602-46.085-30.374c-5.938-4.533-11.877-4.533-17.806,0
		c-5.94,7.328-12.045,15.188-18.332,23.571h-128.832c-13.967-8.035-28.98-15.544-45.039-22.523c-4.891-0.349-7.16,1.572-6.813,5.755
		c1.398,21.657,2.622,41.553,3.669,59.708v306.37c-1.397,15.361-8.2,26.708-20.427,34.045c-4.533,3.141-4.533,7.151,0,12.041
		c11.878,18.505,21.476,34.384,28.811,47.656c3.485,5.592,7.502,5.592,12.043,0c40.499-37.709,80.826-72.624,120.974-104.745
		c11.868,21.999,25.142,41.377,39.805,58.138c15.014,16.409,35.082,29.851,60.226,40.322c4.892,2.095,8.376,1.919,10.471-0.524
		c13.617-25.484,32.297-41.72,56.041-48.698c4.883-2.446,5.583-4.891,2.096-7.336c-61.804-11.526-109.455-38.408-142.971-80.65
		c23.039-13.966,49.22-30.026,78.556-48.182c5.231,0.349,10.295-0.349,15.187-2.096c5.232-2.794,6.279-6.112,3.144-9.954
		c-17.806-12.56-32.819-21.817-45.045-27.755c-6.28-2.795-11.694-2.096-16.235,2.095
		C1536.67,359.362,1520.609,383.107,1503.501,408.242L1503.501,408.242z M1157.859,232.276
		c52.721-20.602,104.919-54.294,156.585-101.079l11.005-2.096c11.52-3.137,13.266-8.201,5.23-15.188
		c-16.408-10.82-34.741-20.418-54.983-28.802c-6.638-3.493-11.529-2.794-14.664,2.096c-22.349,48.88-57.438,94.965-105.27,138.256
		C1146.339,235.936,1147.036,238.207,1157.859,232.276L1157.859,232.276z M1291.93,307.163c4.533-7.684,0.525-13.091-12.051-16.234
		c14.321-15.363,29.509-28.629,45.57-39.798l13.614-4.192c6.978-3.842,7.677-8.384,2.095-13.623
		c-17.107-8.376-36.661-17.45-58.66-27.229c-5.93-2.795-10.297-2.097-13.091,2.095c-15.36,33.519-32.297,63.894-50.8,91.124
		c-18.507,26.889-40.498,55.518-65.989,85.891c-5.931,8.725-5.23,11.344,2.096,7.859c21.649-14.314,37.534-25.315,47.657-32.993
		c10.131-8.029,17.108-14.665,20.95-19.903v115.217c-0.348,38.749-1.048,75.762-2.096,111.024
		c2.096,12.919,12.044,17.634,29.852,14.141c17.806-3.146,27.929-9.599,30.374-19.379c-0.35-29.325-0.875-65.989-1.572-109.979
		V316.594C1285.118,312.053,1289.136,308.909,1291.93,307.163L1291.93,307.163z"/>
</g>
<g id="text10">
	<path id="path57" fill="#0E062B" d="M2203.7,326.542c4.54-1.396,4.89-4.715,1.046-9.948
		c-16.061-13.972-31.421-26.015-46.084-36.137c-9.076-5.938-14.142-5.938-15.188,0c-9.072,11.868-17.63,23.911-25.658,36.137
		H1966.46v-61.796h166.02c5.589-0.348,6.288-3.667,2.095-9.954c-12.217-11.52-27.58-23.737-46.084-36.663
		c-6.638-2.794-11.528-2.095-14.664,2.097c-7.684,12.226-15.711,23.736-24.094,34.566h-83.272v-40.854
		c4.889-2.095,10.479-6.28,16.76-12.559h189.058c5.589-1.397,5.589-5.765,0-13.101c-17.102-13.614-33.51-25.133-49.221-34.565
		c-9.083-6.629-15.197-6.629-18.332,0c-10.131,12.574-19.729,25.143-28.81,37.709h-70.174
		c20.253-21.641,40.323-42.076,60.226-61.272l15.188-3.145c9.08-4.541,9.778-9.082,2.095-13.614
		c-18.156-8.725-36.313-15.536-54.47-20.427c-4.532-2.095-8.55,0.351-12.043,7.336c-10.121,28.977-21.292,59.351-33.518,91.123
		h-233.572c-12.567,0-22.347-0.698-29.326-2.095l9.948,14.138c8.383-1.04,20.254-1.738,35.614-2.086h141.398v53.413h-131.976
		c-10.471,0-20.07-0.699-28.802-2.096l11.521,14.138c7.335-1.04,18.504-1.737,33.516-2.088h115.741v61.796h-183.293
		c-11.528,0-20.95-0.697-28.286-2.095l9.955,14.132c8.026-1.042,20.07-1.738,36.13-2.089H2203.7L2203.7,326.542z M2184.327,420.81
		c5.582-0.7,5.582-4.534,0-11.52c-13.621-10.13-29.5-22-47.657-35.615c-5.938-3.494-10.13-2.446-12.576,3.143
		c-10.12,13.266-19.369,24.437-27.753,33.52h-138.783c3.147-16.767,5.068-30.375,5.768-40.854l13.613-6.287
		c4.884-4.183,4.185-7.504-2.096-9.947c-23.045-6.281-45.56-10.296-67.561-12.043c-4.889,0.349-6.984,1.572-6.287,3.667
		c-1.048,27.579-2.437,49.395-4.184,65.465h-147.164c-12.567,0-22.347-0.699-29.326-2.096l9.948,14.663
		c8.383-1.048,20.254-1.747,35.614-2.096h129.356c-10.479,37.002-31.771,69.474-63.892,97.411
		c-32.121,27.578-75.762,47.132-130.931,58.65c-7.334,4.193-6.984,7.503,1.048,9.947c71.919-5.93,129.883-23.037,173.871-51.316
		c44.339-28.276,71.054-66.511,80.128-114.692h7.86c10.471,40.845,31.247,75.76,62.319,104.737
		c31.072,28.628,68.602,49.063,112.598,61.271c8.375,2.096,13.267-0.174,14.662-6.802c3.837-23.048,19.198-39.798,46.088-50.276
		c8.024-5.24,8.024-9.26,0-12.045c-45.388,1.746-86.066-4.541-122.03-18.855c-35.955-14.313-70.346-40.329-103.166-78.03H2184.327
		L2184.327,420.81z M1822.439,91.399c-5.231,1.048-6.629,4.192-4.184,9.424c9.772,8.375,16.234,16.234,19.373,23.571
		c3.491,6.978,6.636,16.051,9.43,27.229c5.231,16.061,13.091,23.214,23.563,21.468c10.827-1.747,19.029-6.105,24.618-13.084
		c4.882-6.636,7.502-15.194,7.852-25.666c0.698-10.472-5.058-20.427-17.283-29.851C1873.242,96.813,1852.117,92.448,1822.439,91.399
		L1822.439,91.399z"/>
</g>
<g id="text12">
	<path id="path60" fill="#875914" d="M806.787,724.37l18.07,44.147h8.955l21.522-49.959c5.764-10.369,10.634-15.189,14.611-14.458
		v-4.866h-30.322v4.866c7.65,1.264,10.32,5.24,8.014,11.94l-11.626,30.32l-12.412-32.521c-2.2-6.905-0.211-10.161,5.968-9.74v-4.866
		h-37.863v4.866c3.563,0.523,6.18,2.312,7.854,5.342c1.782,3.035,2.671,4.82,2.671,5.345l-12.881,31.574l-12.885-33.614
		c-2.302-5.344-0.575-8.225,5.185-8.646v-4.866h-39.592v4.866c6.391,0.523,10.686,3.771,12.885,9.74l22.622,54.677h9.268
		L806.787,724.37z"/>
</g>
<g id="text14">
	<path id="path63" fill="#875914" d="M909.453,659.017c-8.272,0.412-12.567,4.494-12.881,12.25
		c0.524,7.644,4.712,11.724,12.567,12.247c7.959-0.411,12.152-4.396,12.567-11.938C921.393,663.413,917.308,659.223,909.453,659.017
		L909.453,659.017z M930.348,763.334c-7.435-0.104-10.891-3.508-10.368-10.21v-55.778h-2.83l-28.279,9.741v4.088l5.343,1.73
		c3.875,1.985,5.811,4.344,5.811,7.065v31.739c-0.523,7.854-3.612,11.727-9.269,11.624h-1.885v5.184h41.476V763.334z"/>
</g>
<g id="text16">
	<path id="path66" fill="#875914" d="M949.02,666.398v4.559l7.384,2.509c2.934,0.317,4.346,3.556,4.243,9.739v68.505
		c-0.315,7.854-3.509,11.727-9.586,11.624h-1.414v5.184h40.692v-5.184c-6.701-0.627-9.845-4.511-9.425-11.624v-93.646h-3.456
		L949.02,666.398z"/>
</g>
<g id="text18">
	<path id="path69" fill="#875914" d="M1006.304,666.398v4.559l7.383,2.509c2.928,0.317,4.343,3.556,4.239,9.739v68.505
		c-0.317,7.854-3.508,11.727-9.582,11.624h-1.414v5.184h40.688v-5.184c-6.701-0.627-9.845-4.511-9.423-11.624v-93.646h-3.456
		L1006.304,666.398z"/>
</g>
<g id="text20">
	<path id="path72" fill="#875914" d="M1143.552,724.37v-11.623h-71.798v11.623H1143.552z"/>
</g>
<g id="text22">
	<path id="path75" fill="#875914" d="M1249.925,727.672c-0.206-12.361-2.245-20.212-6.12-23.571
		c-3.772-3.453-7.544-4.978-11.313-4.556c-8.486,0.317-15.504,2.199-21.054,5.66c-5.55,3.35-8.851,5.763-9.9,7.225v-15.084h-2.825
		l-28.437,9.741v4.088l3.293,0.626c1.367,0.311,2.938,1.104,4.716,2.36c1.778,1.149,2.778,3.088,2.985,5.81v31.739
		c-0.419,7.854-3.406,11.727-8.957,11.624h-1.252v5.184h42.108v-5.184h-1.573c-6.708,0.522-10.059-3.192-10.059-11.154v-33.306
		c10.265-5.557,16.289-7.906,18.07-7.073c4.499,0.731,7.222,3.876,8.168,9.424c1.049,5.448,1.518,8.543,1.412,9.274v14.138
		c-0.102,7.233-1.048,12.204-2.826,14.927c-1.673,2.723-3.715,3.978-6.129,3.771v5.184h38.655v-5.184
		c-6.493,0.103-9.478-3.09-8.963-9.583V727.672L1249.925,727.672z"/>
</g>
<g id="text24">
	<path id="path78" fill="#875914" d="M1301.417,659.017c-8.272,0.412-12.566,4.494-12.886,12.25
		c0.526,7.644,4.718,11.724,12.569,12.247c7.962-0.411,12.153-4.396,12.574-11.938
		C1313.357,663.413,1309.27,659.223,1301.417,659.017z M1322.313,763.334c-7.44-0.104-10.893-3.508-10.369-10.21v-55.778h-2.827
		l-28.286,9.741v4.088l5.342,1.73c3.875,1.985,5.813,4.344,5.813,7.065v31.739c-0.524,7.854-3.612,11.727-9.265,11.624h-1.891v5.184
		h41.482V763.334z"/>
</g>
<g id="text26">
	<path id="path81" fill="#875914" d="M1409.958,749.82c-8.907,9.003-16.083,13.094-21.53,12.26
		c-6.804-0.112-11.94-2.938-15.395-8.488c-3.351-5.548-5.023-12.828-5.023-21.838c0.728-16.967,5.391-25.191,13.979-24.667
		c2.199,0.316,4.343,1.411,6.438,3.302c2.097,1.882,3.247,2.929,3.461,3.137c3.249,3.777,6.129,6.081,8.638,6.923
		c2.518,0.729,4.136,0.983,4.873,0.776c3.66-0.204,6.019-1.301,7.069-3.302c1.047-2.088,1.57-3.762,1.57-5.018
		c-0.945-5.876-4.867-9.59-11.781-11.161c-6.812-1.676-11.21-2.405-13.203-2.199c-16.44,0.841-27.857,5.71-34.247,14.616
		c-6.281,8.899-9.265,16.702-8.955,23.403c0.737,12.463,5.079,20.895,13.042,25.292c7.956,4.305,15.292,6.343,21.99,6.128
		c11.004-0.619,19.332-3.396,24.986-8.319c5.651-4.921,8.531-7.747,8.636-8.485L1409.958,749.82L1409.958,749.82z"/>
</g>
<g id="text28">
	<path id="path84" fill="#875914" d="M1460.854,727.672c-0.214-12.987,3.875-19.848,12.252-20.585
		c6.811,1.047,10.479,7.907,11.002,20.585H1460.854z M1501.391,745.742c-4.611,5.445-8.807,8.953-12.574,10.525
		c-3.771,1.46-6.646,2.096-8.638,1.882c-8.068-1.048-13.308-5.137-15.712-12.25c-2.303-7.231-3.304-11.366-2.985-12.417h44.147
		c-0.523-21.784-10.581-33.097-30.166-33.938c-12.671,0.627-21.84,5.024-27.493,13.202c-5.549,8.161-8.226,16.021-8.012,23.562
		c0.412,11.735,3.923,20.166,10.529,25.294c6.597,5.033,13.193,7.495,19.79,7.382c9.321-0.411,16.863-2.872,22.628-7.382
		c5.865-4.604,10.002-8.748,12.407-12.408L1501.391,745.742L1501.391,745.742z"/>
</g>
<path id="path30" stroke="#0E062B" d="M39.74,714.509h649.316H39.74z"/>
<path id="path32" stroke="#0E062B" d="M2213.13,714.509h-649.314H2213.13z"/>
<path id="path34" fill="#875914" d="M2298.3,80.938c1.808,0.22,5.638-0.954,5.886,0.327l3.688-0.178
	c0.568-0.036,1.146,0.042,1.622,0.22l2.157-0.099c1.031-0.157,1.666-0.028,1.666,0.526l2.099-0.099
	c1.673,0.27,3.317,0.598,4.926,0.982c0.064,0.37,0.257,0.704,1.139,0.555v0.299c0.989,1.423-1.125,1.338-0.697,2.477
	c1.26-0.185,1.224,0.498,2.683,0.178l0.094,0.619l1.579-0.085c0.569,0.398,1.829,0.313,2.243,0.819l1.074-0.057
	c0.391,0.242,0.625,0.555,0.654,0.89c-0.256,0.555,0.904,1.758-0.256,1.857c0.063,0.427,0.113,0.833,0.185,1.239l3.68-0.185
	c0.021,0.534,0.599,0.69,1.673,0.534v0.299l1.082-0.057l0.22,1.523c-0.64,0.071-1.237,0.157-0.968,0.655l1.58-0.071l1.082-0.057
	l1.58-0.071v0.299c-1.16,0.106-0.042,1.31-0.263,1.864l1.572-0.085l-0.128-0.911c0.483,0.043,0.483-0.142,0.483-0.327l-0.099-0.619
	c2.583-0.42,3.501,0.292,3.438,1.666l1.074-0.05c-0.127-0.256,0.164-0.299,0.484-0.328c0.128,0.25,0.47,0.328,1.075,0.25
	c0.085,0.583,0.185,1.203,0.271,1.822c-2.271-0.064-0.101,2.014-2.371,1.943l0.086,0.626c0.057,0.285,0.142,0.605,0.142,0.911
	c-0.775,0.932-2.128,1.594-1.657,3.132c0.213,0.847-1.701,0.669-0.783,1.865c-1.253,0.185,0.085-1.395-1.709-0.833
	c-0.746,0.505,0.442,1.943-0.896,2.171c0.626,0.32,2.519,0.762,0.498,0.762c-0.498,0.69-1.067,0.676-1.759,0.505l0.121,0.456
	c-0.05,0.505-0.789,0.669-0.377,1.395c0.028,0.213,0.086,0.413,0.086,0.619c-0.293,0.064-0.69,0.064-0.891,0.178
	c0.107,0.171,0.107,0.413,0.178,0.612l0.229,1.523c0.84-0.128,0.96,0.228,1.623,0.228c0.085-0.242,0.391-0.356,1.01-0.356
	c0.393,0.242,0.627,0.555,0.662,0.882c-0.769,0.093-0.349,0.754-0.349,1.239l0.228,1.523v0.299c0.335,0.014,0.463,0.142,0.534,0.313
	l0.135,0.569c0.021,0.213,0.086,0.413,0.086,0.619l0.128,0.918l-2.1,0.1c-1.808,0.556-0.47-1.018-1.722-0.84l-1.075,0.057
	c0.057,0.285,0.143,0.605,0.143,0.911c0.127,0.911,0.264,1.822,0.398,2.733l0.221,1.516l0.669,2.997l0.541,3.651
	c1.793-0.562,0.47,1.004,1.708,0.833l0.085,0.612c-2.377-0.313-1.302,1.067-1.302,1.9c0.106,0.477,0.106,1.053,1.188,0.861
	c0.257-0.563-0.902-1.765,0.257-1.865v0.299c0.106,0.719,0.214,1.423,0.313,2.135c0.043,0.285,0.135,0.605,0.135,0.911
	c0.229,1.516,0.441,3.032,0.67,4.548l-1.574,0.078c-0.092-0.583-0.178-1.203-0.263-1.822c-0.84,0.014-0.541-0.755-1.68-0.527
	c0.47,0.939,2.527,2.491,1.545,3.288v0.299l1.587-0.078c0.932,1.11-1.359,0.647-0.832,1.573h-0.527
	c0.043,0.285,0.085,0.598,0.142,0.911c0.848,1.153-1.65,0.69-0.79,1.851c0.627,0.028,1.488-0.114,1.631,0.234
	c-0.563,1.495,1.494,1.196,1.408,2.37c0.527,0.527,1.474,0.769,1.809,1.438c-0.576,0.028-1.117,0.157-1.537,0.384
	c-0.071-0.406-0.122-0.812-0.186-1.21c-0.569,0.014-1.109,0.156-1.53,0.377c-0.356,0.861,1.495,2.783-0.655,2.783
	c0.029,0.213,0.086,0.413,0.086,0.619l0.057,0.306c-0.441,0.071-0.583,0.271-0.441,0.619c1.346-0.249,1.915,0.021,1.708,0.833
	c-1.743-0.342-1.054,1.857-0.255,1.857h0.526v0.306c-0.919,0-1.189,0.341-0.919,0.954c0.086,0.583,0.186,1.21,0.271,1.83
	c0.335,1.985,1.388-0.1,2.634-0.136c0.036,0.214,0.086,0.42,0.086,0.626c-0.285,0.341-1.16,0.341-0.912,0.954
	c1.303,2.035-2.918,1.936-1.074,3.416l0.128,0.911c-0.213,0.64,0.946,1.964-0.213,2.149c0.05,0.292,0.135,0.612,0.135,0.911
	l0.228,1.523l0.128,0.911v0.299c0.101,0.576,0.186,1.196,0.271,1.822l0.099,0.612c0.584,0.869,0.727,1.822,0.399,2.733l0.092,0.626
	c0.015,0.484,0.228,1.054-0.925,0.968l-0.129-0.911l-0.583-3.943c-0.064-0.185-0.136-0.363-0.576-0.285
	c0.192,1.131-1.595,1.295-0.647,2.79c0.085,0.569,0.184,1.224,0.27,1.808c0.086,0.584,0.186,1.21,0.271,1.822
	c-0.477,1.01,0.526,1.345-0.171,2.484c-0.036,0.52,0.762,1.473-0.876,1.238c0.563,0.84-0.626,0.818-0.299,1.544
	c-0.285,0.94,0.697,1.082,0.797,1.794c-1.424,0.555,1.431,1.565-0.221,2.149l0.1,0.619c0.058,0.434,0.121,0.833,0.171,1.245
	c-1.623-0.256-0.868,0.691-0.868,1.239v0.299l0.128,0.939l0.534,3.637l0.135,0.911h-0.526l0.136,0.911l0.355,2.427
	c0.057,0.427,0.121,0.84,0.186,1.238l0.127,0.911h0.385c0.043,0.285,0.086,0.612,0.143,0.904c-0.52,0.235-0.42,0.726-1.494,0.69
	c-1.047,0.156-1.666,0.014-1.666-0.534v-0.299h-0.533c0.07,0.292-0.612,0.264-1.012,0.356c-0.113,0.526,0.498,0.555,1.146,0.555
	c-1.011,0.89-2.471-0.185-3.638,0.484c0.343,0.633-0.669,0.619-1.494,0.683h-0.534c-0.641,0-1.252-0.036-1.139-0.548l-1.58,0.071
	c-0.428,0.071-0.569,0.271-0.428,0.619l0.222,1.516l-1.075,0.05c0.521,0.925-0.775,0.946-0.256,1.857
	c0.271,0.605,0.028,0.968-0.926,0.968c0.1,0.584,0.186,1.196,0.271,1.822c-0.748,0.057-1.488,0.121-1.631-0.228v-0.313
	c-0.505,0-0.348,0.384-0.441,0.626c-0.611-0.028-0.925,0.114-0.996,0.356l-1.58,0.071c-0.142-0.356-0.036-0.883-0.662-0.883
	c0.47,0.769-0.014,1.097-1.451,0.982c-0.051-0.427-0.115-0.833-0.172-1.239c-1.395-0.114-1.878,0.221-1.451,0.997
	c-1.018,0.89-2.271,1.694-2.15,3.16h-0.526c0.271,0.598,0.028,0.961-0.918,0.961c0.036,0.221,0.085,0.42,0.085,0.62l-1.579,0.071
	c0.035,0.683-2.214,0.242-3.11,0.469l-1.075,0.042c0.035,0.214,0.086,0.42,0.086,0.627c-0.484-0.043-0.484,0.142-0.484,0.327
	c0.327,0.996-0.996,1.203-1.302,1.894l-4.74,0.228c-0.748,0.071-1.488,0.128-1.631-0.214c-1.794-0.228-5.622,0.94-5.879-0.327
	l-3.68,0.185c-0.569,0.028-1.146-0.05-1.63-0.228l-2.149,0.1c-1.046,0.156-1.666,0.014-1.666-0.527l-2.156,0.107
	c-1.665-0.278-3.31-0.605-4.911-0.989c-0.121-0.363-0.271-0.705-1.146-0.548v-0.306c-0.996-1.423,1.125-1.331,0.689-2.477
	c-1.244,0.186-1.224-0.498-2.676-0.17c-0.035-0.221-0.085-0.427-0.085-0.626l-1.587,0.071c-0.577-0.384-1.829-0.299-2.235-0.797
	l-1.075,0.042c-0.391-0.242-0.626-0.548-0.668-0.882c0.256-0.555-0.891-1.765,0.256-1.851l-0.171-1.245l-3.687,0.178
	c-0.015-0.527-0.592-0.684-1.673-0.527v-0.299l-1.074,0.043l-0.228-1.509c0.639-0.042,1.237-0.157,0.967-0.662l-1.579,0.078
	l-1.075,0.05l-1.58,0.078V207.9c1.152-0.107,0.028-1.317,0.256-1.865l-1.58,0.085c0.043,0.285,0.086,0.598,0.143,0.904
	c-0.484-0.028-0.484,0.143-0.484,0.334l0.086,0.612c-2.576,0.427-3.488-0.285-3.431-1.658l-1.082,0.049
	c0.135,0.256-0.171,0.299-0.484,0.328c-0.128-0.249-0.47-0.328-1.074-0.249c-0.093-0.577-0.186-1.203-0.271-1.822
	c2.263,0.063,0.1-2.022,2.355-1.951c-0.021-0.221-0.086-0.419-0.086-0.619l-0.127-0.911c0.775-0.939,2.127-1.594,1.658-3.139
	c-0.214-0.847,1.687-0.669,0.783-1.857c1.238-0.186-0.093,1.395,1.715,0.825c0.74-0.505-0.441-1.943,0.883-2.164
	c-0.619-0.327-2.513-0.74-0.498-0.769c0.505-0.69,1.067-0.669,1.758-0.505l-0.128-0.462c0.05-0.506,0.797-0.669,0.384-1.396
	l-0.1-0.626c0.292-0.057,0.698-0.063,0.896-0.17c-0.1-0.171-0.113-0.413-0.185-0.619l-0.228-1.516
	c-0.84,0.128-0.947-0.228-1.623-0.228c-0.078,0.242-0.385,0.355-1.004,0.355c-0.392-0.242-0.626-0.555-0.662-0.882
	c0.77-0.086,0.406-0.726,0.342-1.238c-0.063-0.506-0.143-1.011-0.213-1.516l-0.058-0.306c-0.654-0.014-0.512-0.527-0.654-0.883
	c-0.036-0.22-0.085-0.427-0.085-0.626c-0.044-0.285-0.143-0.605-0.143-0.911l2.156-0.1c1.808-0.569,0.47,1.01,1.708,0.825
	l1.075-0.042l-0.128-0.911c-0.143-0.911-0.271-1.822-0.406-2.733l-0.228-1.523l-0.441-3.025c-0.185-1.217-0.37-2.427-0.541-3.651
	c-1.809,0.569-0.47-1.011-1.723-0.826c-0.021-0.213-0.086-0.413-0.086-0.619c2.393,0.313,1.317-1.068,1.317-1.9
	c-0.106-0.477-0.106-1.054-1.188-0.862c-0.256,0.563,0.897,1.773-0.256,1.858l-0.05-0.299c-0.101-0.712-0.207-1.409-0.313-2.121
	l-0.129-0.911l-0.683-4.555l1.587-0.071c0.086,0.576,0.179,1.196,0.264,1.822c0.84-0.014,0.527,0.748,1.673,0.527
	c-0.463-0.954-2.52-2.491-1.545-3.289l-0.05-0.306l-1.572,0.078c-0.933-1.11,1.359-0.655,0.832-1.566h0.527
	c-0.058-0.292-0.143-0.612-0.143-0.911c-0.861-1.16,1.645-0.698,0.782-1.865c-0.618-0.015-1.48,0.127-1.622-0.228
	c0.562-1.495-1.495-1.196-1.41-2.37c-0.533-0.527-1.479-0.769-1.807-1.438c0.576-0.021,1.117-0.157,1.537-0.384
	c0.057,0.434,0.12,0.833,0.178,1.238c0.569-0.021,1.118-0.15,1.537-0.377c0.356-0.861-1.494-2.783,0.655-2.783l-0.101-0.619v-0.306
	c0.442-0.078,0.57-0.278,0.442-0.619c-1.346,0.249-1.915-0.028-1.724-0.833c1.759,0.334,1.068-1.9,0.264-1.858h-0.526v-0.306
	c0.926-0.007,1.188-0.335,0.926-0.961c-0.101-0.583-0.186-1.203-0.271-1.822c-0.335-1.993-1.402,0.1-2.641,0.128l-0.093-0.612
	c0.3-0.341,1.174-0.341,0.925-0.968c-1.302-2.036,2.919-1.936,1.075-3.417c-0.043-0.285-0.085-0.605-0.143-0.911
	c0.221-0.641-0.946-1.957,0.221-2.149l-0.135-0.904l-0.221-1.516c-0.043-0.299-0.143-0.612-0.143-0.911v-0.306
	c-0.085-0.576-0.171-1.203-0.271-1.815c-0.028-0.22-0.086-0.427-0.086-0.626c-0.591-0.868-0.733-1.814-0.405-2.733
	c-0.021-0.207-0.085-0.413-0.085-0.612c-0.021-0.484-0.229-1.053,0.91-0.968c0.057,0.292,0.143,0.612,0.143,0.911l0.577,3.943
	c0.058,0.185,0.136,0.363,0.576,0.285c-0.199-1.132,1.601-1.295,0.654-2.79c-0.099-0.569-0.17-1.231-0.271-1.815
	c-0.1-0.576-0.185-1.203-0.27-1.822c0.477-1.018-0.527-1.338,0.163-2.484c0.044-0.512-0.755-1.466,0.868-1.238
	c-0.555-0.833,0.634-0.826,0.314-1.537c0.277-0.947-0.713-1.082-0.799-1.794c1.424-0.555-1.43-1.565,0.207-2.149
	c-0.021-0.22-0.085-0.413-0.085-0.626c-0.064-0.427-0.122-0.833-0.186-1.238c1.638,0.256,0.883-0.69,0.883-1.238v-0.299
	c-0.05-0.299-0.143-0.612-0.143-0.911c-0.178-1.21-0.349-2.406-0.534-3.644l-0.127-0.911h0.512l-0.128-0.911l-0.355-2.42
	c-0.064-0.441-0.114-0.84-0.179-1.238l-0.135-0.911h-0.526c-0.051-0.299-0.136-0.612-0.136-0.918
	c0.505-0.221,0.42-0.719,1.494-0.676c1.032-0.157,1.666-0.021,1.666,0.527v0.299h0.526c-0.063-0.299,0.605-0.271,1.011-0.356
	c0.106-0.556-0.49-0.556-1.146-0.556c1.018-0.882,2.462,0.186,3.645-0.483c-0.343-0.626,0.669-0.612,1.487-0.684h0.527
	c0.641,0,1.259,0.028,1.146,0.555l1.572-0.071c0.441-0.078,0.584-0.277,0.441-0.626l-0.228-1.516l1.081-0.05
	c-0.519-0.925,0.77-0.954,0.257-1.865c-0.271-0.598-0.035-0.954,0.911-0.954c-0.085-0.583-0.171-1.209-0.271-1.822
	c0.748-0.064,1.487-0.128,1.63,0.221l0.05,0.306c0.506,0,0.35-0.384,0.435-0.626c0.619,0.021,0.925-0.106,1.01-0.349l1.581-0.078
	c0.128,0.349,0.035,0.882,0.654,0.882c-0.427-0.776,0.058-1.104,1.444-0.982c0.064,0.427,0.114,0.826,0.186,1.239
	c1.438,0.114,1.872-0.214,1.438-0.997c1.075-0.89,2.271-1.694,2.15-3.16h0.525c-0.263-0.598-0.027-0.961,0.926-0.961l-0.093-0.62
	l1.58-0.078c-0.027-0.676,2.214-0.234,3.117-0.462l1.083-0.042l-0.101-0.626c0.484,0.042,0.484-0.143,0.484-0.328
	c-0.313-0.996,1.004-1.203,1.311-1.893l4.739-0.242C2297.424,80.654,2298.158,80.589,2298.3,80.938z M2263.246,195.942l-0.818,0.036
	c0.043,0.292,0.085,0.605,0.143,0.911c-1.16,0.107-0.035,1.31-0.264,1.857c-1.942-0.206-0.555,1.239-0.783,1.865l1.074-0.057v0.299
	l0.129,0.911c-0.634,0.071-1.224,0.156-0.953,0.662v0.306c0.989,1.417-1.132,1.331-0.698,2.477c0,0.299,0.655,0.207,1.075,0.256
	l1.074-0.057c0.021-0.456-0.355-1.11,0.355-1.238l1.118-0.014c-0.058-0.278,0.028-0.555,0.256-0.797
	c-0.042-0.555-0.883-0.555-0.782-1.174c-0.064-0.435-0.121-0.833-0.186-1.246l-0.128-0.897c-0.05-0.298-0.143-0.612-0.143-0.911
	c-0.085-0.22-0.085-0.427-0.085-0.626L2263.246,195.942z M2353.503,174.562l1.039,0.014c-0.52,1.21,2.398,3.473-0.392,3.922v0.47
	c0.05,0.342,0.207,0.662,0.207,0.982c-2.242,1.986,9.061,2.015,1.779,2.741c-1.623,0.085-1.623,0.669-3.737,0.598
	c-0.206,0.982,0.604,1.509,2.897,1.366c0.783,1.438-3.937,1.125-6.078,1.651v-0.498l-0.314-1.423
	c-0.234-1.139-2.525-1.353-1.928-2.847l5.217-0.171c-0.1-0.512-0.677-1.01-1.616-1.388c-4.512,0.598-2.191-1.815-3.21-2.797
	l2.605-0.086h1.281l-0.313-1.438c-0.363-0.854,0.989-1.16,3.602-1.082L2353.503,174.562z M2358.037,163.679
	c0.84-2.499,1.58,0.911,1.416,4.747c-2.306-1.025,0.249,5.879-1.268,6.136l-0.299-6.876c-0.469,0.071-1.21,0.085-2.349,0.029v0.234
	c0.064,0.178,0.171,0.335,0.171,0.491c0.199,0.463,0.371,0.954,0.541,1.445v0.235c-5.352-0.264-2.647,1.452,0.449,1.209
	c0.085,0.228,0.283,0.484,0.283,0.719v0.235c-1.139,0.028-2.284-0.036-3.252-0.171c0.135,0.228-1.224,0.206-2.015,0.271l0.193,0.498
	c1.159-0.071,1.843,0.014,2.148,0.2l0.428,1.203l1.053-0.021v0.242l-3.159,0.057c-1.289-0.2-0.663-0.883-3.438-0.662v-0.235
	c0.796-0.071,2.021-0.049,2.021-0.285c-0.413-0.327-2.413-0.228-3.331-0.413l0.362,0.036l0.071,0.847h-0.512
	c-0.598-0.028-0.889,0.228-0.976,0.712c-1.031-1.317,0.228-3.317-0.889-5.396h0.505c-0.036-0.584-0.135-1.224-0.135-1.829
	c-0.051-0.861-0.115-1.68-0.164-2.484c-0.428-1.559,0.042-2.221,1.388-1.979c0.498,1.836-0.363,2.284-0.249,3.729
	c0.32,0.328,0.513,0.854,0.627,1.48c0.854-0.014,1.644-0.114,2.291-0.256l-0.455-1.196c2.043-1.025,1.701,0.74,3.444,0.655
	l-0.37-0.975l-0.904-2.399v-0.242c2.883,0.106,1.852-0.541,2.883-0.783l3.16-0.064c0.129,0.335,0.242,0.662,0.37,0.982
	L2358.037,163.679z M2371.126,162.825l0.221,4.178l0.163,3.402l0.1,1.708l0.036,2.42c-1.261,0.32-1.324-1.694-2.157-2.221
	c-0.042-0.797-0.078-1.666-0.135-2.505c-0.021-0.576-0.078-1.139-0.078-1.701v-0.818l-0.221-4.171L2371.126,162.825z
	 M2352.542,151.088c0.2,0.854,0.384,1.751,0.569,2.662c0.249,1.167,0.498,2.356,0.77,3.53c1.637-1.594,4.142-0.754,3.615,1.224
	h1.117c-0.669,0.398-0.968,0.883-0.84,1.367l-6.67,0.228c0.051,0.62,0.094,1.281,1.389,1.281c0.071,0.57-1.295,0.655-0.818,1.367
	l-2.271,0.078h-1.118l-0.476-2.213c1.637-0.142,0.726-1.104,0.726-1.808l-0.271-1.331c-0.085-0.477-0.577-0.933-1.388-1.289
	c2.932,0.021,5.594-0.042,4.164-1.48C2352.265,153.024,2345.645,151.088,2352.542,151.088z M2251.631,127.643
	c1.26-0.306,1.338,1.694,2.163,2.221l0.128,2.463l0.093,1.694l0.078,0.896l0.221,4.143l-2.07,0.285l-0.221-4.143l-0.179-3.38
	c-0.021-0.577-0.078-1.132-0.078-1.687C2251.723,129.337,2251.631,128.469,2251.631,127.643z M2337.666,96.81l-1.074,0.043
	c-0.021,0.463,0.356,1.11-0.349,1.246l-1.117,0.05c0.063,0.271-0.028,0.555-0.271,0.79c0.058,0.562,0.897,0.562,0.798,1.182
	c0.057,0.405,0.12,0.804,0.185,1.203l0.129,0.911c0.042,0.299,0.085,0.612,0.142,0.911c0.021,0.221,0.086,0.42,0.086,0.626
	c0.128,0.854,0.249,1.708,0.377,2.563l0.818-0.036l-0.135-0.911c1.167-0.106,0.035-1.302,0.263-1.857
	c1.944,0.199,0.556-1.239,0.783-1.865l-1.074,0.057v-0.299c-0.043-0.292-0.143-0.612-0.143-0.911
	c0.647-0.042,1.238-0.156,0.968-0.669v-0.299c-0.996-1.424,1.125-1.338,0.69-2.477C2338.741,96.768,2338.087,96.853,2337.666,96.81
	L2337.666,96.81z"/>
</svg>
